<svg width="22" height="21" viewBox="0 0 22 21" fill="none" xmlns="http://www.w3.org/2000/svg">
<path fill-rule="evenodd" clip-rule="evenodd" d="M11.1 12.0625C12.205 12.0625 13.2648 11.6235 14.0462 10.8421C14.8276 10.0607 15.2666 9.00086 15.2666 7.89579C15.2666 6.79072 14.8276 5.73092 14.0462 4.94951C13.2648 4.16811 12.205 3.72913 11.1 3.72913C9.99489 3.72913 8.93508 4.16811 8.15368 4.94951C7.37228 5.73092 6.93329 6.79072 6.93329 7.89579C6.93329 9.00086 7.37228 10.0607 8.15368 10.8421C8.93508 11.6235 9.99489 12.0625 11.1 12.0625ZM11.1 11.0208C11.5103 11.0208 11.9167 10.94 12.2958 10.7829C12.675 10.6259 13.0195 10.3957 13.3097 10.1055C13.5998 9.81532 13.83 9.47082 13.9871 9.09168C14.1441 8.71254 14.225 8.30617 14.225 7.89579C14.225 7.48541 14.1441 7.07905 13.9871 6.69991C13.83 6.32076 13.5998 5.97627 13.3097 5.68608C13.0195 5.3959 12.675 5.16572 12.2958 5.00867C11.9167 4.85162 11.5103 4.77079 11.1 4.77079C10.2712 4.77079 9.4763 5.10003 8.89025 5.68608C8.30419 6.27214 7.97496 7.06699 7.97496 7.89579C7.97496 8.72459 8.30419 9.51945 8.89025 10.1055C9.4763 10.6916 10.2712 11.0208 11.1 11.0208Z" fill="#0E9EEF"/>
<path fill-rule="evenodd" clip-rule="evenodd" d="M21.5166 10.5C21.5166 16.2531 16.8531 20.9166 11.1 20.9166C5.34683 20.9166 0.683289 16.2531 0.683289 10.5C0.683289 4.74685 5.34683 0.083313 11.1 0.083313C16.8531 0.083313 21.5166 4.74685 21.5166 10.5ZM16.1156 18.4219C14.6161 19.3737 12.8761 19.8778 11.1 19.875C9.28145 19.8778 7.50176 19.3492 5.97964 18.3541C5.85464 18.1979 5.72756 18.0364 5.59943 17.8698C5.45056 17.6745 5.3702 17.4356 5.37079 17.1901C5.37079 16.6291 5.77391 16.1588 6.31298 16.0802C9.87808 15.5594 12.3328 15.6041 15.9026 16.0984C16.1611 16.1359 16.3973 16.2656 16.5676 16.4637C16.7379 16.6618 16.8308 16.9148 16.8291 17.176C16.8291 17.426 16.7432 17.6687 16.588 17.8583C16.4281 18.0531 16.2703 18.2411 16.1156 18.4219ZM17.863 16.9927C17.7796 16.0177 17.0395 15.2041 16.0453 15.0666C12.3911 14.5609 9.83693 14.5125 6.16246 15.0495C5.16246 15.1953 4.42548 16.0161 4.33798 16.9937C2.65846 15.2495 1.72165 12.9214 1.72496 10.5C1.72496 5.32238 5.92235 1.12498 11.1 1.12498C16.2776 1.12498 20.475 5.32238 20.475 10.5C20.4783 12.9209 19.5419 15.2485 17.863 16.9927Z" fill="#0E9EEF"/>
</svg>
