<svg width="27" height="27" viewBox="0 0 27 27" fill="none" xmlns="http://www.w3.org/2000/svg">
<path d="M6.18292 20.5671L15.3821 15.6321L20.3171 6.43292L11.1179 11.3679L6.18292 20.5671ZM13.25 14.9583C12.8368 14.9583 12.4907 14.8183 12.2117 14.5383C11.9326 14.2583 11.7926 13.9122 11.7917 13.5C11.7917 13.0868 11.9317 12.7407 12.2117 12.4617C12.4917 12.1826 12.8378 12.0426 13.25 12.0417C13.6632 12.0417 14.0098 12.1817 14.2898 12.4617C14.5698 12.7417 14.7093 13.0878 14.7083 13.5C14.7083 13.9132 14.5683 14.2598 14.2883 14.5398C14.0083 14.8198 13.6622 14.9593 13.25 14.9583ZM13.2544 26.625C11.4402 26.625 9.73396 26.2808 8.13562 25.5925C6.53826 24.9032 5.14847 23.9679 3.96625 22.7867C2.78403 21.6064 1.84826 20.2181 1.15896 18.6217C0.469653 17.0253 0.125 15.3195 0.125 13.5044C0.125 11.6902 0.469167 9.98396 1.1575 8.38562C1.84681 6.78826 2.78208 5.39847 3.96333 4.21625C5.14361 3.03403 6.53194 2.09826 8.12833 1.40896C9.72472 0.719653 11.4305 0.375 13.2456 0.375C15.0598 0.375 16.766 0.719167 18.3644 1.4075C19.9617 2.09681 21.3515 3.03208 22.5337 4.21333C23.716 5.39361 24.6517 6.78194 25.341 8.37833C26.0303 9.97472 26.375 11.6805 26.375 13.4956C26.375 15.3098 26.0308 17.016 25.3425 18.6144C24.6532 20.2117 23.7179 21.6015 22.5367 22.7837C21.3564 23.966 19.9681 24.9017 18.3717 25.591C16.7753 26.2803 15.0695 26.625 13.2544 26.625ZM13.25 25.1667C16.5069 25.1667 19.2656 24.0365 21.526 21.776C23.7865 19.5156 24.9167 16.7569 24.9167 13.5C24.9167 10.2431 23.7865 7.48438 21.526 5.22396C19.2656 2.96354 16.5069 1.83333 13.25 1.83333C9.99306 1.83333 7.23438 2.96354 4.97396 5.22396C2.71354 7.48438 1.58333 10.2431 1.58333 13.5C1.58333 16.7569 2.71354 19.5156 4.97396 21.776C7.23438 24.0365 9.99306 25.1667 13.25 25.1667Z" fill="#0E9EEF"/>
</svg>
