<svg width="32" height="33" viewBox="0 0 32 33" fill="none" xmlns="http://www.w3.org/2000/svg">
<path fill-rule="evenodd" clip-rule="evenodd" d="M15.7501 0.822998C14.7176 0.822998 13.7799 1.11904 12.7605 1.61341C11.7776 2.09175 10.6401 2.79758 9.22112 3.67842L6.20675 5.54946C4.86508 6.38362 3.78737 7.05154 2.95904 7.68592C2.10008 8.34217 1.44091 9.013 0.96404 9.88362C0.488623 10.7513 0.275706 11.6759 0.172165 12.7682C0.072998 13.8255 0.072998 15.1205 0.072998 16.7436V19.0959C0.072998 21.8726 0.072998 24.0645 0.296123 25.778C0.523623 27.5353 1.00487 28.9543 2.08987 30.0757C3.17925 31.203 4.56467 31.7076 6.28258 31.9453C7.94508 32.1772 10.0713 32.1772 12.7488 32.1772H18.7513C21.4288 32.1772 23.5551 32.1772 25.2176 31.9453C26.934 31.7076 28.3209 31.203 29.4118 30.0757C30.4953 28.9543 30.9765 27.5353 31.2055 25.778C31.4272 24.0645 31.4272 21.8726 31.4272 19.0959V16.7436C31.4272 15.1205 31.4272 13.827 31.328 12.7682C31.2259 11.6745 31.0115 10.7513 30.5361 9.88362C30.0593 9.013 29.3986 8.34362 28.5411 7.68592C27.7128 7.05008 26.6365 6.38362 25.2934 5.54946L22.279 3.67842C20.8601 2.79758 19.7226 2.09175 18.7382 1.61341C17.7218 1.11758 16.784 0.822998 15.7501 0.822998ZM10.3251 5.56842C11.8053 4.64967 12.848 4.00508 13.7186 3.58071C14.5659 3.168 15.1667 3.0105 15.7501 3.0105C16.3334 3.0105 16.9342 3.168 17.7815 3.58071C18.6536 4.00362 19.6949 4.64967 21.1751 5.56842L24.0917 7.37821C25.4932 8.24883 26.4776 8.85987 27.2126 9.42279C27.9257 9.96967 28.3355 10.4203 28.617 10.9336C28.8984 11.4484 29.0632 12.0507 29.1493 12.9724C29.2382 13.9174 29.2397 15.1088 29.2397 16.7976V19.0157C29.2397 21.8886 29.2368 23.939 29.0355 25.4951C28.8372 27.0234 28.4624 27.9101 27.8397 28.5561C27.2199 29.1963 26.377 29.577 24.9172 29.7797C23.4209 29.9868 21.4478 29.9897 18.6667 29.9897H12.8334C10.0509 29.9897 8.07925 29.9868 6.583 29.7797C5.12321 29.5755 4.28029 29.1963 3.66196 28.5547C3.03779 27.9101 2.663 27.0234 2.46612 25.4951C2.26196 23.939 2.2605 21.8901 2.2605 19.0157V16.7976C2.2605 15.1088 2.2605 13.9174 2.35091 12.9724C2.43696 12.0507 2.60175 11.4484 2.88321 10.9336C3.16467 10.4203 3.57446 9.96967 4.28904 9.42279C5.02258 8.85987 6.00696 8.24883 7.40842 7.37821L10.3251 5.56842Z" fill="#0E9EEF"/>
</svg>
