<svg width="30" height="27" viewBox="0 0 30 27" fill="none" xmlns="http://www.w3.org/2000/svg">
<path d="M3.58341 0.375H5.04175C6.57883 0.375 7.83883 1.565 7.95112 3.07292L7.95842 3.29167V23.7083C7.95794 24.4438 7.67975 25.152 7.17951 25.6912C6.67928 26.2304 5.99389 26.5607 5.2605 26.6162L5.04175 26.625H3.58341C2.84767 26.6249 2.13913 26.3469 1.59964 25.8466C1.06016 25.3463 0.729561 24.6607 0.67404 23.9271L0.666748 23.7083V3.29167C0.666748 1.75458 1.85675 0.494584 3.36466 0.382292L3.58341 0.375ZM12.3334 0.375H13.7917C15.3288 0.375 16.5888 1.565 16.7011 3.07292L16.7084 3.29167V23.7083C16.7079 24.4438 16.4298 25.152 15.9295 25.6912C15.4293 26.2304 14.7439 26.5607 14.0105 26.6162L13.7917 26.625H12.3334C11.5977 26.6249 10.8891 26.3469 10.3496 25.8466C9.81016 25.3463 9.47956 24.6607 9.42404 23.9271L9.41675 23.7083V3.29167C9.41675 1.75458 10.6067 0.494584 12.1147 0.382292L12.3334 0.375ZM22.5038 3.29167C23.7288 3.29167 24.8488 4.06604 25.2601 5.25458L25.3286 5.48354L29.7255 22.6131C29.9081 23.3256 29.8149 24.0807 29.4644 24.7273C29.1139 25.3738 28.5321 25.8642 27.8355 26.1L27.6255 26.1627L26.2124 26.5244C25.503 26.7055 24.7515 26.6136 24.1068 26.2668C23.462 25.92 22.9711 25.3436 22.7313 24.6519L22.6628 24.4258L18.2645 7.29771C18.0816 6.5847 18.175 5.82891 18.5261 5.18194C18.8772 4.53496 19.4599 4.04466 20.1574 3.80938L20.3659 3.74667L21.7776 3.385C22.0148 3.32335 22.2588 3.29199 22.5038 3.29167ZM5.04175 2.5625H3.58341C3.41283 2.56273 3.2477 2.62264 3.11665 2.73184C2.9856 2.84105 2.8969 2.99267 2.86591 3.16042L2.85425 3.29167V23.7083C2.85425 24.0642 3.11237 24.3646 3.45216 24.4258L3.58341 24.4375H5.04175C5.39904 24.4375 5.698 24.1779 5.75925 23.8396L5.77092 23.7083V3.29167C5.77069 3.12108 5.71078 2.95595 5.60157 2.8249C5.49237 2.69386 5.34075 2.60515 5.173 2.57417L5.04175 2.5625ZM13.7917 2.5625H12.3334C12.1628 2.56273 11.9977 2.62264 11.8667 2.73184C11.7356 2.84105 11.6469 2.99267 11.6159 3.16042L11.6042 3.29167V23.7083C11.6042 24.0642 11.8624 24.3646 12.2022 24.4258L12.3334 24.4375H13.7917C14.149 24.4375 14.448 24.1779 14.5092 23.8396L14.5209 23.7083V3.29167C14.5207 3.12108 14.4608 2.95595 14.3516 2.8249C14.2424 2.69386 14.0907 2.60515 13.923 2.57417L13.7917 2.5625ZM22.5053 5.47917L22.4134 5.485L22.3215 5.50396L20.9099 5.86417C20.7464 5.90522 20.6022 6.00189 20.5022 6.13759C20.4021 6.27329 20.3524 6.43957 20.3615 6.60792L20.3834 6.75375L24.7817 23.8819C24.8221 24.0381 24.9131 24.1766 25.0406 24.2755C25.1681 24.3745 25.3247 24.4284 25.4861 24.4287L25.578 24.4244L25.6684 24.4069L27.083 24.0423C27.248 23.9998 27.393 23.9008 27.4926 23.7625C27.5922 23.6242 27.6403 23.4554 27.6284 23.2854L27.6065 23.1571L23.2097 6.02604C23.1691 5.86992 23.078 5.73161 22.9506 5.63268C22.8232 5.53376 22.6666 5.47978 22.5053 5.47917Z" fill="#0E9EEF"/>
</svg>
