<svg width="22" height="19" viewBox="0 0 22 19" fill="none" xmlns="http://www.w3.org/2000/svg">
<path d="M15.9828 0.320312C13.932 0.320312 12.1488 1.24512 11.1 2.79492C10.0511 1.24512 8.26794 0.320312 6.21716 0.320312C4.66372 0.322122 3.17441 0.940028 2.07596 2.03848C0.977504 3.13694 0.359597 4.62624 0.357788 6.17969C0.357788 9.03125 2.13513 11.999 5.64099 14.999C7.24748 16.3679 8.9828 17.578 10.8226 18.6123C10.9079 18.6581 11.0032 18.6821 11.1 18.6821C11.1968 18.6821 11.2921 18.6581 11.3773 18.6123C13.2171 17.578 14.9525 16.3679 16.559 14.999C20.0648 11.999 21.8422 9.03125 21.8422 6.17969C21.8404 4.62624 21.2224 3.13694 20.124 2.03848C19.0255 0.940028 17.5362 0.322122 15.9828 0.320312ZM11.1 17.4209C9.49744 16.4961 1.52966 11.6211 1.52966 6.17969C1.53096 4.93688 2.02523 3.74535 2.90403 2.86655C3.78282 1.98776 4.97436 1.49348 6.21716 1.49219C8.19763 1.49219 9.86072 2.5498 10.558 4.25293C10.6021 4.3604 10.6772 4.45231 10.7737 4.517C10.8702 4.58169 10.9838 4.61623 11.1 4.61623C11.2162 4.61623 11.3297 4.58169 11.4262 4.517C11.5227 4.45231 11.5978 4.3604 11.642 4.25293C12.3392 2.5498 14.0023 1.49219 15.9828 1.49219C17.2256 1.49348 18.4171 1.98776 19.2959 2.86655C20.1747 3.74535 20.669 4.93688 20.6703 6.17969C20.6703 11.6211 12.7025 16.4961 11.1 17.4209Z" fill="#0E9EEF"/>
</svg>
