<svg width="35" height="35" viewBox="0 0 35 35" fill="none" xmlns="http://www.w3.org/2000/svg">
<path d="M5.83325 10.2083C5.83325 9.82156 5.9869 9.45063 6.26039 9.17714C6.53388 8.90365 6.90481 8.75 7.29159 8.75H27.7083C28.095 8.75 28.466 8.90365 28.7395 9.17714C29.0129 9.45063 29.1666 9.82156 29.1666 10.2083C29.1666 10.5951 29.0129 10.966 28.7395 11.2395C28.466 11.513 28.095 11.6667 27.7083 11.6667H7.29159C6.90481 11.6667 6.53388 11.513 6.26039 11.2395C5.9869 10.966 5.83325 10.5951 5.83325 10.2083ZM5.83325 17.5C5.83325 17.1132 5.9869 16.7423 6.26039 16.4688C6.53388 16.1953 6.90481 16.0417 7.29159 16.0417H27.7083C28.095 16.0417 28.466 16.1953 28.7395 16.4688C29.0129 16.7423 29.1666 17.1132 29.1666 17.5C29.1666 17.8868 29.0129 18.2577 28.7395 18.5312C28.466 18.8047 28.095 18.9583 27.7083 18.9583H7.29159C6.90481 18.9583 6.53388 18.8047 6.26039 18.5312C5.9869 18.2577 5.83325 17.8868 5.83325 17.5ZM5.83325 24.7917C5.83325 24.4049 5.9869 24.034 6.26039 23.7605C6.53388 23.487 6.90481 23.3333 7.29159 23.3333H27.7083C28.095 23.3333 28.466 23.487 28.7395 23.7605C29.0129 24.034 29.1666 24.4049 29.1666 24.7917C29.1666 25.1784 29.0129 25.5494 28.7395 25.8229C28.466 26.0964 28.095 26.25 27.7083 26.25H7.29159C6.90481 26.25 6.53388 26.0964 6.26039 25.8229C5.9869 25.5494 5.83325 25.1784 5.83325 24.7917Z" fill="#EE10B0"/>
</svg>
