<svg xmlns="http://www.w3.org/2000/svg" viewBox="0 0 24 24" fill="none" stroke="currentColor" stroke-width="2" stroke-linecap="round" stroke-linejoin="round">
  <path d="M17.5 19H9.5C7.01472 19 5 16.9853 5 14.5C5 12.0147 7.01472 10 9.5 10H10.5C11.3284 10 12 9.32843 12 8.5C12 7.67157 11.3284 7 10.5 7C9.67157 7 9 6.32843 9 5.5C9 4.67157 9.67157 4 10.5 4C11.3284 4 12 3.32843 12 2.5C12 2.22386 11.7761 2 11.5 2H10.5C7.46243 2 5 4.46243 5 7.5C5 9.43305 6.06695 11.1342 7.68553 12.0314"/>
  <path d="M16 14L18 16L22 12"/>
  <path d="M19.5 22C16.4624 22 14 19.5376 14 16.5C14 13.4624 16.4624 11 19.5 11C22.5376 11 25 13.4624 25 16.5C25 19.5376 22.5376 22 19.5 22Z" transform="translate(-2 -2)"/>
</svg>
