<svg width="26" height="25" viewBox="0 0 26 25" fill="none" xmlns="http://www.w3.org/2000/svg">
<path d="M13.1 25C11.9444 25 10.8376 24.8535 9.77966 24.5605C8.72172 24.2676 7.72481 23.8485 6.78894 23.3032C5.85307 22.758 5.01078 22.1069 4.26208 21.3501C3.51339 20.5933 2.86235 19.7469 2.30896 18.811C1.75557 17.8752 1.33647 16.8783 1.05164 15.8203C0.766805 14.7624 0.616252 13.6556 0.599976 12.5C0.599976 11.3525 0.74646 10.2458 1.03943 9.17969C1.3324 8.11361 1.75151 7.1167 2.29675 6.18896C2.842 5.26123 3.49304 4.41895 4.24988 3.66211C5.00671 2.90527 5.85307 2.25423 6.78894 1.70898C7.72481 1.16374 8.72172 0.744629 9.77966 0.45166C10.8376 0.158691 11.9444 0.00813802 13.1 0C14.2474 0 15.3542 0.146484 16.4203 0.439453C17.4864 0.732422 18.4833 1.15153 19.411 1.69678C20.3387 2.24202 21.181 2.89307 21.9379 3.6499C22.6947 4.40674 23.3457 5.25309 23.891 6.18896C24.4362 7.12484 24.8553 8.12174 25.1483 9.17969C25.4413 10.2376 25.5918 11.3444 25.6 12.5C25.6 13.6556 25.4535 14.7624 25.1605 15.8203C24.8676 16.8783 24.4484 17.8752 23.9032 18.811C23.358 19.7469 22.7069 20.5892 21.9501 21.3379C21.1932 22.0866 20.3469 22.7376 19.411 23.291C18.4751 23.8444 17.4782 24.2635 16.4203 24.5483C15.3623 24.8332 14.2556 24.9837 13.1 25ZM13.1 1.5625C12.099 1.5625 11.1346 1.69271 10.2069 1.95312C9.27917 2.21354 8.40841 2.57975 7.5946 3.05176C6.7808 3.52376 6.04024 4.09749 5.37292 4.77295C4.70561 5.4484 4.13595 6.1849 3.66394 6.98242C3.19194 7.77995 2.82166 8.65072 2.5531 9.59473C2.28455 10.5387 2.15434 11.5072 2.16248 12.5C2.16248 13.501 2.29268 14.4653 2.5531 15.3931C2.81352 16.3208 3.17973 17.1916 3.65173 18.0054C4.12374 18.8192 4.69747 19.5597 5.37292 20.2271C6.04838 20.8944 6.78487 21.464 7.5824 21.936C8.37992 22.408 9.25069 22.7783 10.1947 23.0469C11.1387 23.3154 12.1071 23.4456 13.1 23.4375C14.101 23.4375 15.0653 23.3073 15.993 23.0469C16.9208 22.7865 17.7915 22.4202 18.6053 21.9482C19.4191 21.4762 20.1597 20.9025 20.827 20.2271C21.4943 19.5516 22.064 18.8151 22.536 18.0176C23.008 17.2201 23.3783 16.3493 23.6469 15.4053C23.9154 14.4613 24.0456 13.4928 24.0375 12.5C24.0375 11.499 23.9073 10.5347 23.6469 9.60693C23.3864 8.6792 23.0202 7.80843 22.5482 6.99463C22.0762 6.18083 21.5025 5.44027 20.827 4.77295C20.1516 4.10563 19.4151 3.53597 18.6176 3.06396C17.82 2.59196 16.9493 2.22168 16.0052 1.95312C15.0612 1.68457 14.0928 1.55436 13.1 1.5625ZM13.1 12.5V4.6875H11.5375V14.0625H17.7875V12.5H13.1Z" fill="#0E9EEF"/>
</svg>
