<svg width="19" height="19" viewBox="0 0 19 19" fill="none" xmlns="http://www.w3.org/2000/svg">
<path opacity="0.6" fill-rule="evenodd" clip-rule="evenodd" d="M7.01565 13.0896C8.41965 14.2114 10.1999 14.753 11.9908 14.6032C13.7816 14.4534 15.4472 13.6236 16.6453 12.2841C17.8434 10.9447 18.4832 9.19729 18.4332 7.40087C18.3832 5.60445 17.6473 3.89535 16.3765 2.62459C15.1058 1.35384 13.3967 0.617894 11.6002 0.567909C9.80381 0.517923 8.05643 1.15769 6.71698 2.35582C5.37753 3.55394 4.54768 5.21947 4.39788 7.01034C4.24808 8.8012 4.78969 10.5815 5.91148 11.9855L0.540644 17.3552C0.463888 17.4268 0.402323 17.513 0.359623 17.6089C0.316923 17.7047 0.293962 17.8081 0.29211 17.913C0.29026 18.0179 0.309557 18.1221 0.34885 18.2194C0.388144 18.3167 0.446625 18.4051 0.520811 18.4792C0.594997 18.5534 0.683367 18.6119 0.780647 18.6512C0.877926 18.6905 0.982124 18.7098 1.08702 18.7079C1.19192 18.7061 1.29537 18.6831 1.3912 18.6404C1.48704 18.5977 1.57329 18.5362 1.64481 18.4594L7.01565 13.0896ZM15.2719 11.4625C16.0364 10.6979 16.5572 9.72381 16.7682 8.66334C16.9793 7.60286 16.8713 6.50361 16.4578 5.50452C16.0443 4.50542 15.344 3.65131 14.4452 3.05014C13.5465 2.44897 12.4897 2.12773 11.4084 2.127C10.3271 2.12627 9.26988 2.4461 8.37031 3.04605C7.47075 3.64601 6.76923 4.49917 6.35441 5.49772C5.93959 6.49626 5.83008 7.59536 6.03974 8.65612C6.2494 9.71688 6.7688 10.6917 7.53231 11.4573L7.53752 11.4625L7.54273 11.4667C8.56868 12.4903 9.95895 13.0648 11.4082 13.064C12.8574 13.0632 14.2471 12.4872 15.2719 11.4625Z" fill="white"/>
</svg>
